<?xml version="1.0" encoding="UTF-8"?>
<svg version="1.1" xmlns="http://www.w3.org/2000/svg" width="1024" height="1024">
<path d="M0 0 C337.92 0 675.84 0 1024 0 C1024 337.92 1024 675.84 1024 1024 C686.08 1024 348.16 1024 0 1024 C0 686.08 0 348.16 0 0 Z " fill="#040403" transform="translate(0,0)"/>
<path d="M0 0 C1.1763501 0.00749268 1.1763501 0.00749268 2.37646484 0.01513672 C14.77381898 0.38372732 24.49678683 6.37636382 32.9375 15.125 C38.39300406 21.63156447 41.40907861 29.04170955 41.25 37.5 C42.43029785 37.48428955 43.6105957 37.4685791 44.82666016 37.45239258 C49.22112152 37.39794106 53.61555326 37.36359462 58.01025391 37.33520508 C59.90939353 37.32015309 61.80849859 37.29970684 63.70751953 37.27368164 C66.44312081 37.23714008 69.178261 37.22023762 71.9140625 37.20703125 C72.75804596 37.19154739 73.60202942 37.17606354 74.47158813 37.16011047 C79.48981253 37.15868977 82.90303276 37.7132169 87.25 40.5 C91.02942932 44.68801627 92.38411455 47.03906524 92.3125 52.625 C92.30347656 53.53507812 92.29445313 54.44515625 92.28515625 55.3828125 C92.26775391 56.43082031 92.26775391 56.43082031 92.25 57.5 C92.83722839 57.49333817 93.42445679 57.48667633 94.02947998 57.47981262 C100.19489004 57.41294291 106.36019547 57.36798732 112.52587891 57.33520508 C114.8205179 57.32020849 117.11512867 57.29980449 119.40966797 57.27368164 C122.72630825 57.2368942 126.04256642 57.2201818 129.359375 57.20703125 C130.36925476 57.19154739 131.37913452 57.17606354 132.4196167 57.16011047 C146.61833681 57.15682785 160.12121026 61.32880089 170.625 71.125 C180.78588956 81.97199464 183.55556751 94.0943075 183.52415466 108.4777832 C183.52939134 109.66981039 183.53462802 110.86183758 183.54002339 112.0899868 C183.5523908 115.38172132 183.55586799 118.67332296 183.55542648 121.96507621 C183.55708081 125.52221339 183.57015893 129.07931224 183.58161926 132.63642883 C183.6044228 140.40744222 183.61238516 148.17842821 183.61744571 155.94947052 C183.62070875 160.80809432 183.62723497 165.66671025 183.6344471 170.52532959 C183.65400854 183.99535872 183.6704149 197.46538056 183.67332363 210.9354248 C183.6735112 211.79662894 183.67369877 212.65783308 183.67389202 213.54513431 C183.67425826 215.29077943 183.67462196 217.03642456 183.67498314 218.78206968 C183.67516595 219.64853259 183.67534876 220.51499549 183.67553711 221.40771484 C183.67580793 222.70900857 183.67580793 222.70900857 183.67608423 224.03659105 C183.67962268 238.08033762 183.70662646 252.12393055 183.744035 266.16762388 C183.78219415 280.60952108 183.80148167 295.0513422 183.80178314 309.4932909 C183.80236607 317.59241607 183.81075133 325.69135803 183.83978081 333.79043579 C183.86439696 340.68964061 183.87150922 347.58859541 183.85653328 354.48783237 C183.84940532 358.00186551 183.85004101 361.51540603 183.87294388 365.02938271 C183.97932773 384.81221282 183.70888209 402.31434979 169.375 417.484375 C153.50172543 432.46157762 132.29902902 430.94204375 111.98022461 430.90405273 C109.22095353 430.90812247 106.46169977 430.91662852 103.70243835 430.92485046 C97.01299852 430.94196083 90.32365294 430.94289495 83.63419693 430.93763756 C78.19365279 430.93358113 72.7531363 430.9350568 67.31259346 430.94038582 C66.14709104 430.94150845 66.14709104 430.94150845 64.95804312 430.94265376 C63.37914509 430.94418537 61.80024708 430.94572372 60.22134907 430.94726873 C45.4486375 430.96096493 30.67597903 430.95557574 15.9032687 430.94408352 C2.41078113 430.93414764 -11.08156939 430.94710304 -24.57403583 430.97101771 C-38.45901843 430.99544108 -52.34393727 431.00500904 -66.2289409 430.99836498 C-74.01205875 430.99488079 -81.79507117 430.99705215 -89.57817268 431.01461601 C-96.20135882 431.02937832 -102.82436522 431.02992076 -109.44754798 431.0125451 C-112.82151079 431.0040667 -116.19489129 431.00399843 -119.56887817 431.01719666 C-138.70210131 431.08630688 -154.18561098 430.59556629 -169.22265625 417.31640625 C-183.22519959 403.08009758 -182.63508607 387.48344233 -182.51968896 368.63286805 C-182.50392365 364.97767864 -182.52303012 361.32263717 -182.53749084 357.66746521 C-182.56021815 350.52438665 -182.55090167 343.38170149 -182.52998998 336.23863113 C-182.51365105 330.42908323 -182.50951981 324.61964209 -182.51395607 318.81007385 C-182.51458675 317.9806291 -182.51521742 317.15118434 -182.51586721 316.2966049 C-182.51721337 314.61116959 -182.51859295 312.9257343 -182.52000556 311.24029905 C-182.53191902 295.46648901 -182.50793654 279.6928937 -182.47098748 263.91913253 C-182.44009803 250.40874023 -182.43772619 236.89859488 -182.45678711 223.38818359 C-182.47894084 207.6676699 -182.48500568 191.9472944 -182.46446449 176.22677374 C-182.46230174 174.54782456 -182.46015264 172.86887536 -182.45801735 171.18992615 C-182.45695098 170.36402875 -182.45588462 169.53813136 -182.45478594 168.68720677 C-182.44833885 162.89020547 -182.45305767 157.09327573 -182.46204185 151.29627991 C-182.47261972 144.22364848 -182.4649423 137.15130579 -182.43458607 130.07872736 C-182.41954375 126.47582436 -182.41217997 122.8733755 -182.42677689 119.27046013 C-182.49827001 99.7352461 -182.27029652 84.12086115 -167.8046875 69.5390625 C-157.53814735 59.9972193 -146.80578645 58.18108098 -133.15625 58.3046875 C-131.37534973 58.30893234 -131.37534973 58.30893234 -129.55847168 58.31326294 C-125.78887599 58.32440402 -122.01952315 58.34949774 -118.25 58.375 C-115.68489928 58.38503763 -113.11979481 58.39416211 -110.5546875 58.40234375 C-104.28637632 58.42432349 -98.01820552 58.4577405 -91.75 58.5 C-91.7585199 57.87958832 -91.76703979 57.25917664 -91.77581787 56.6199646 C-91.78244446 55.80742218 -91.78907104 54.99487976 -91.79589844 54.15771484 C-91.80441833 53.35167816 -91.81293823 52.54564148 -91.82171631 51.71517944 C-91.66316714 46.81789919 -89.18933697 42.85210443 -85.6875 39.5625 C-81.20093616 37.10212628 -76.89237608 37.37173939 -71.92578125 37.40234375 C-70.63367989 37.40446617 -70.63367989 37.40446617 -69.31547546 37.40663147 C-66.56444831 37.4122286 -63.81350256 37.42478054 -61.0625 37.4375 C-59.1972668 37.44251537 -57.33203233 37.44707821 -55.46679688 37.45117188 C-50.89449989 37.46219708 -46.32226375 37.47945973 -41.75 37.5 C-41.60828369 36.40671387 -41.46656738 35.31342773 -41.32055664 34.18701172 C-39.83339137 24.57675503 -33.91374603 15.90164539 -26.75 9.5 C-18.51268443 3.51876449 -10.21975177 -0.08628931 0 0 Z " fill="#040404" transform="translate(378.75,186.5)"/>
<path d="M0 0 C1.1763501 0.00749268 1.1763501 0.00749268 2.37646484 0.01513672 C14.77381898 0.38372732 24.49678683 6.37636382 32.9375 15.125 C38.39300406 21.63156447 41.40907861 29.04170955 41.25 37.5 C42.43029785 37.48428955 43.6105957 37.4685791 44.82666016 37.45239258 C49.22112152 37.39794106 53.61555326 37.36359462 58.01025391 37.33520508 C59.90939353 37.32015309 61.80849859 37.29970684 63.70751953 37.27368164 C66.44312081 37.23714008 69.178261 37.22023762 71.9140625 37.20703125 C72.75804596 37.19154739 73.60202942 37.17606354 74.47158813 37.16011047 C79.48981253 37.15868977 82.90303276 37.7132169 87.25 40.5 C91.02942932 44.68801627 92.38411455 47.03906524 92.3125 52.625 C92.30347656 53.53507812 92.29445313 54.44515625 92.28515625 55.3828125 C92.26775391 56.43082031 92.26775391 56.43082031 92.25 57.5 C92.83722839 57.49333817 93.42445679 57.48667633 94.02947998 57.47981262 C100.19489004 57.41294291 106.36019547 57.36798732 112.52587891 57.33520508 C114.8205179 57.32020849 117.11512867 57.29980449 119.40966797 57.27368164 C122.72630825 57.2368942 126.04256642 57.2201818 129.359375 57.20703125 C130.36925476 57.19154739 131.37913452 57.17606354 132.4196167 57.16011047 C146.61833681 57.15682785 160.12121026 61.32880089 170.625 71.125 C180.78588956 81.97199464 183.55556751 94.0943075 183.52415466 108.4777832 C183.52939134 109.66981039 183.53462802 110.86183758 183.54002339 112.0899868 C183.5523908 115.38172132 183.55586799 118.67332296 183.55542648 121.96507621 C183.55708081 125.52221339 183.57015893 129.07931224 183.58161926 132.63642883 C183.6044228 140.40744222 183.61238516 148.17842821 183.61744571 155.94947052 C183.62070875 160.80809432 183.62723497 165.66671025 183.6344471 170.52532959 C183.65400854 183.99535872 183.6704149 197.46538056 183.67332363 210.9354248 C183.6735112 211.79662894 183.67369877 212.65783308 183.67389202 213.54513431 C183.67425826 215.29077943 183.67462196 217.03642456 183.67498314 218.78206968 C183.67516595 219.64853259 183.67534876 220.51499549 183.67553711 221.40771484 C183.67580793 222.70900857 183.67580793 222.70900857 183.67608423 224.03659105 C183.67962268 238.08033762 183.70662646 252.12393055 183.744035 266.16762388 C183.78219415 280.60952108 183.80148167 295.0513422 183.80178314 309.4932909 C183.80236607 317.59241607 183.81075133 325.69135803 183.83978081 333.79043579 C183.86439696 340.68964061 183.87150922 347.58859541 183.85653328 354.48783237 C183.84940532 358.00186551 183.85004101 361.51540603 183.87294388 365.02938271 C183.97932773 384.81221282 183.70888209 402.31434979 169.375 417.484375 C153.50172543 432.46157762 132.29902902 430.94204375 111.98022461 430.90405273 C109.22095353 430.90812247 106.46169977 430.91662852 103.70243835 430.92485046 C97.01299852 430.94196083 90.32365294 430.94289495 83.63419693 430.93763756 C78.19365279 430.93358113 72.7531363 430.9350568 67.31259346 430.94038582 C66.14709104 430.94150845 66.14709104 430.94150845 64.95804312 430.94265376 C63.37914509 430.94418537 61.80024708 430.94572372 60.22134907 430.94726873 C45.4486375 430.96096493 30.67597903 430.95557574 15.9032687 430.94408352 C2.41078113 430.93414764 -11.08156939 430.94710304 -24.57403583 430.97101771 C-38.45901843 430.99544108 -52.34393727 431.00500904 -66.2289409 430.99836498 C-74.01205875 430.99488079 -81.79507117 430.99705215 -89.57817268 431.01461601 C-96.20135882 431.02937832 -102.82436522 431.02992076 -109.44754798 431.0125451 C-112.82151079 431.0040667 -116.19489129 431.00399843 -119.56887817 431.01719666 C-138.70210131 431.08630688 -154.18561098 430.59556629 -169.22265625 417.31640625 C-183.22519959 403.08009758 -182.63508607 387.48344233 -182.51968896 368.63286805 C-182.50392365 364.97767864 -182.52303012 361.32263717 -182.53749084 357.66746521 C-182.56021815 350.52438665 -182.55090167 343.38170149 -182.52998998 336.23863113 C-182.51365105 330.42908323 -182.50951981 324.61964209 -182.51395607 318.81007385 C-182.51458675 317.9806291 -182.51521742 317.15118434 -182.51586721 316.2966049 C-182.51721337 314.61116959 -182.51859295 312.9257343 -182.52000556 311.24029905 C-182.53191902 295.46648901 -182.50793654 279.6928937 -182.47098748 263.91913253 C-182.44009803 250.40874023 -182.43772619 236.89859488 -182.45678711 223.38818359 C-182.47894084 207.6676699 -182.48500568 191.9472944 -182.46446449 176.22677374 C-182.46230174 174.54782456 -182.46015264 172.86887536 -182.45801735 171.18992615 C-182.45695098 170.36402875 -182.45588462 169.53813136 -182.45478594 168.68720677 C-182.44833885 162.89020547 -182.45305767 157.09327573 -182.46204185 151.29627991 C-182.47261972 144.22364848 -182.4649423 137.15130579 -182.43458607 130.07872736 C-182.41954375 126.47582436 -182.41217997 122.8733755 -182.42677689 119.27046013 C-182.49827001 99.7352461 -182.27029652 84.12086115 -167.8046875 69.5390625 C-157.53814735 59.9972193 -146.80578645 58.18108098 -133.15625 58.3046875 C-131.37534973 58.30893234 -131.37534973 58.30893234 -129.55847168 58.31326294 C-125.78887599 58.32440402 -122.01952315 58.34949774 -118.25 58.375 C-115.68489928 58.38503763 -113.11979481 58.39416211 -110.5546875 58.40234375 C-104.28637632 58.42432349 -98.01820552 58.4577405 -91.75 58.5 C-91.7585199 57.87958832 -91.76703979 57.25917664 -91.77581787 56.6199646 C-91.78244446 55.80742218 -91.78907104 54.99487976 -91.79589844 54.15771484 C-91.80441833 53.35167816 -91.81293823 52.54564148 -91.82171631 51.71517944 C-91.66316714 46.81789919 -89.18933697 42.85210443 -85.6875 39.5625 C-81.20093616 37.10212628 -76.89237608 37.37173939 -71.92578125 37.40234375 C-70.63367989 37.40446617 -70.63367989 37.40446617 -69.31547546 37.40663147 C-66.56444831 37.4122286 -63.81350256 37.42478054 -61.0625 37.4375 C-59.1972668 37.44251537 -57.33203233 37.44707821 -55.46679688 37.45117188 C-50.89449989 37.46219708 -46.32226375 37.47945973 -41.75 37.5 C-41.60828369 36.40671387 -41.46656738 35.31342773 -41.32055664 34.18701172 C-39.83339137 24.57675503 -33.91374603 15.90164539 -26.75 9.5 C-18.51268443 3.51876449 -10.21975177 -0.08628931 0 0 Z M92.25 83.5 C92.21261719 84.72976563 92.17523438 85.95953125 92.13671875 87.2265625 C92.07102972 88.85940401 92.00458341 90.49221518 91.9375 92.125 C91.90366211 93.33736328 91.90366211 93.33736328 91.86914062 94.57421875 C91.61256098 100.31227273 90.87535643 104.93855325 86.56989193 109.13920879 C83.40798179 110.99390705 81.08229554 110.87472113 77.42469788 110.8742218 C76.73877121 110.87819621 76.05284454 110.88217061 75.34613222 110.88626546 C73.04833349 110.8958878 70.75115057 110.88407116 68.45336914 110.87231445 C66.80573802 110.87474247 65.15810837 110.87846189 63.51048279 110.88337708 C59.03524149 110.89278912 54.56021879 110.88335763 50.08499455 110.87004495 C45.4028083 110.85873398 40.72063287 110.86283773 36.03843689 110.86479187 C28.17410712 110.86567504 20.30986352 110.85459028 12.44555664 110.83618164 C3.35353318 110.81502102 -5.73836398 110.81150245 -14.83040708 110.8177436 C-23.57521859 110.8234391 -32.31998563 110.81778892 -41.06479073 110.80657005 C-44.78676743 110.80192578 -48.50871691 110.80104949 -52.23069572 110.8031559 C-56.61458061 110.80504005 -60.99833702 110.79692509 -65.38219261 110.7810955 C-66.99103514 110.77685409 -68.59989071 110.77600114 -70.20873642 110.77878571 C-72.40520319 110.78201045 -74.60128685 110.77291852 -76.79771423 110.76069641 C-78.02679976 110.75864354 -79.2558853 110.75659067 -80.52221584 110.75447559 C-83.73420148 110.50124554 -85.92995397 110.04519778 -88.75 108.5 C-90.90145967 103.31933791 -91.14635779 98.12136383 -91.375 92.5625 C-91.41367187 91.78326172 -91.45234375 91.00402344 -91.4921875 90.20117188 C-91.58544127 88.30112621 -91.66875962 86.40059722 -91.75 84.5 C-98.99052743 84.34722993 -106.23063571 84.24252504 -113.47241211 84.17041016 C-115.93318209 84.14033174 -118.39384569 84.09945782 -120.85424805 84.04736328 C-124.40179763 83.97415874 -127.94792378 83.94045226 -131.49609375 83.9140625 C-132.5870787 83.88309479 -133.67806366 83.85212708 -134.80210876 83.82022095 C-141.24062196 83.8174164 -145.47061226 84.80795085 -150.82142639 88.42684937 C-156.9898893 95.05773591 -157.32822665 101.746586 -157.25793457 110.37303162 C-157.26417453 111.55366355 -157.2704145 112.73429549 -157.27684355 113.95070416 C-157.28999537 117.21051392 -157.28532003 120.46972324 -157.27289867 123.72951758 C-157.26382417 127.25176782 -157.27782982 130.77393876 -157.28881836 134.2961731 C-157.30658323 141.18966241 -157.30277256 148.08297729 -157.2911678 154.97647338 C-157.28212499 160.58072053 -157.28091314 166.18491887 -157.28526306 171.78917122 C-157.28587599 172.58756819 -157.28648893 173.38596516 -157.28712043 174.20855599 C-157.28839937 175.83062515 -157.28969622 177.45269429 -157.2910108 179.07476342 C-157.30241083 194.27702723 -157.28931234 209.47919448 -157.26780933 224.68144245 C-157.24994229 237.71646898 -157.2530403 250.751353 -157.27148438 263.78637695 C-157.29290722 278.93362255 -157.30130864 294.08078355 -157.28903532 309.22804219 C-157.28776116 310.84436578 -157.28650368 312.46068939 -157.28526306 314.07701302 C-157.28464596 314.87221457 -157.28402886 315.66741613 -157.28339306 316.4867147 C-157.27994414 322.08160714 -157.28575868 327.67644577 -157.29518127 333.27132988 C-157.30641852 340.0935092 -157.30332523 346.91550451 -157.2820583 353.73766284 C-157.2715704 357.21631909 -157.26738695 360.69466893 -157.28065491 364.17332268 C-157.29159397 367.94918179 -157.2778644 371.72418037 -157.25793457 375.49998474 C-157.2713189 377.13920203 -157.2713189 377.13920203 -157.28497362 378.81153482 C-157.2096579 386.17406527 -156.20501508 392.8477087 -150.97073412 398.38085932 C-146.6094994 402.32619597 -142.85629278 404.74838986 -136.85764599 404.75447559 C-135.86819774 404.76030779 -134.87874949 404.76613998 -133.85931796 404.77214891 C-132.77460579 404.76836958 -131.68989363 404.76459026 -130.5723114 404.76069641 C-129.41818734 404.76452196 -128.26406329 404.76834751 -127.07496578 404.77228898 C-123.87082476 404.78083167 -120.66682975 404.78038171 -117.46268475 404.77610838 C-114.00722549 404.77364501 -110.55179337 404.78265056 -107.09634399 404.79014587 C-100.3260146 404.80290644 -93.55572484 404.80468482 -86.78538545 404.80234561 C-81.28210339 404.80056355 -75.77883337 404.80230969 -70.27555275 404.80657005 C-69.10125643 404.80746284 -69.10125643 404.80746284 -67.90323696 404.80837366 C-66.31289221 404.8095854 -64.72254747 404.81079953 -63.13220272 404.81201603 C-48.21141442 404.82289712 -33.29064871 404.82072658 -18.36985914 404.81463119 C-4.72074327 404.8094634 8.92830119 404.82071281 22.57740293 404.83972941 C36.59085391 404.85910397 50.6042711 404.86736436 64.61773556 404.86360615 C72.48574909 404.86169329 80.35370187 404.86418983 88.22170448 404.87832069 C94.92103327 404.89023072 101.62026393 404.89164378 108.31959406 404.87953053 C111.73717755 404.8736387 115.15458152 404.87255056 118.57215309 404.88453293 C122.27872275 404.89495642 125.98480843 404.88693434 129.69136047 404.8742218 C130.76938047 404.88159609 131.84740047 404.88897037 132.95808774 404.89656812 C140.28122161 404.84364925 145.24437131 404.02746049 151 399.1875 C156.5588119 392.547808 156.68716357 386.93801575 156.65786743 378.59500122 C156.66536967 377.3867877 156.6728719 376.17857418 156.68060148 374.93374813 C156.69822772 371.58772885 156.70243112 368.24218639 156.70081019 364.89615369 C156.70225665 361.28457954 156.72084944 357.67308641 156.73706055 354.06155396 C156.76915101 346.16905893 156.77899152 338.27662932 156.78470278 330.38407755 C156.78845582 325.4548331 156.7972653 320.52560608 156.80720139 315.5963707 C156.83413508 301.94454665 156.85664925 288.29273943 156.85907936 274.64088631 C156.85931272 273.33110174 156.85931272 273.33110174 156.8595508 271.99485689 C156.85984185 270.22476061 156.86012722 268.45466434 156.86040695 266.68456806 C156.86054981 265.80591158 156.86069266 264.92725509 156.86083984 264.02197266 C156.86097951 263.14224218 156.86111918 262.2625117 156.86126308 261.35612272 C156.86439936 247.09661673 156.90100148 232.83741429 156.9524761 218.57800855 C157.00492154 203.93280134 157.03119234 189.28774405 157.03063047 174.64244068 C157.03088309 166.42162909 157.04211814 158.20116654 157.08180618 149.98044205 C157.11542329 142.98170945 157.1248848 135.98346185 157.10304923 128.98467363 C157.09261427 125.41477059 157.09341433 121.84581738 157.12481308 118.27601624 C157.15854343 114.40323973 157.13785877 110.53182708 157.11196899 106.65896606 C157.13948429 104.9724782 157.13948429 104.9724782 157.16755545 103.25191987 C157.06534694 96.49746653 155.88427923 92.87408578 151.11410558 88.01606071 C144.74934904 82.83966007 137.62166284 83.08875784 129.75 83.20703125 C128.13557007 83.21339851 128.13557007 83.21339851 126.48852539 83.21989441 C123.0754213 83.23658975 119.66292345 83.27422557 116.25 83.3125 C113.92578982 83.32755863 111.60157032 83.34124497 109.27734375 83.35351562 C103.60135819 83.38646326 97.92572243 83.43657098 92.25 83.5 Z " fill="#CDB18B" transform="translate(378.75,186.5)"/>
<path d="M0 0 C1.51932884 -0.00956978 1.51932884 -0.00956978 3.0693512 -0.01933289 C4.69585854 -0.02100212 4.69585854 -0.02100212 6.35522461 -0.02270508 C8.065662 -0.02769768 8.065662 -0.02769768 9.81065369 -0.03279114 C12.22890827 -0.03784958 14.64716982 -0.0401998 17.06542969 -0.04003906 C20.6927514 -0.04219775 24.31975467 -0.06028739 27.94702148 -0.0793457 C38.77261318 -0.10662775 49.53752166 0.00398806 60.32397461 0.99291992 C61.13520279 1.06541458 61.94643097 1.13790924 62.78224182 1.21260071 C85.13113142 3.55954713 104.40981591 14.03465652 119.03491211 30.83276367 C130.53842701 45.67031072 135.28405836 62.27856314 135.13256836 80.89526367 C135.1288623 81.55512268 135.12515625 82.21498169 135.12133789 82.89483643 C134.96371533 102.62094204 130.24330275 121.45640774 116.02709961 135.91479492 C115.2575293 136.65084961 114.48795898 137.3869043 113.69506836 138.14526367 C112.55618164 139.29575195 112.55618164 139.29575195 111.39428711 140.46948242 C78.3211764 172.35174463 31.60463872 162.14526367 -11.30493164 162.14526367 C-11.30493164 109.01526367 -11.30493164 55.88526367 -11.30493164 1.14526367 C-7.254007 0.47010956 -4.00099993 0.01727885 0 0 Z " fill="#CCB08A" transform="translate(463.304931640625,654.854736328125)"/>
<path d="M0 0 C13.72178911 9.98836785 21.85072601 23.73649308 25.19921875 40.25 C25.52085501 42.51003077 25.65469309 44.71423963 25.7421875 46.99609375 C25.80535156 48.1665625 25.86851562 49.33703125 25.93359375 50.54296875 C26.57018821 67.31910516 22.51483232 82.39574527 11.3671875 95.30859375 C-1.24046223 108.61082185 -18.04096884 115.71753442 -36.3203125 116.24609375 C-53.9584761 116.06404848 -69.49883848 109.80797499 -82.4765625 97.97265625 C-94.9892907 85.02679516 -99.91581754 67.01796056 -99.73071289 49.41967773 C-99.14211224 32.79370326 -92.77031279 18.03454583 -81.2578125 5.99609375 C-58.9524231 -14.30542414 -25.29143909 -15.93566284 0 0 Z " fill="#CDB18A" transform="translate(412.2578125,705.00390625)"/>
<path d="M0 0 C12.39164819 10.04206295 20.56647436 24.33290708 22.32373047 40.30981445 C22.47955348 43.2557655 22.52654534 46.17505834 22.5078125 49.125 C22.50281738 50.16938232 22.49782227 51.21376465 22.49267578 52.28979492 C22.28883997 61.4195306 20.6147274 69.085148 17.0078125 77.4375 C16.57339844 78.44941406 16.13898438 79.46132813 15.69140625 80.50390625 C9.04849442 94.11146638 -3.24037045 103.1166951 -17.3046875 108.0078125 C-21.17146998 109.26826739 -25.06381213 110.38541786 -28.9921875 111.4375 C-29.99958984 111.73914063 -29.99958984 111.73914063 -31.02734375 112.046875 C-47.29407607 115.28081781 -64.15083711 109.56912578 -77.640625 100.6953125 C-90.89253622 90.86851064 -98.1751453 76.89900474 -101.484375 60.98046875 C-104.17862698 42.18287995 -100.08884053 23.89735221 -88.7734375 8.3984375 C-80.25515556 -1.64096621 -69.50416053 -7.79502793 -56.9921875 -11.5625 C-55.7546875 -11.975 -54.5171875 -12.3875 -53.2421875 -12.8125 C-34.77496393 -17.05958222 -14.81188484 -11.12699896 0 0 Z " fill="#CDB08A" transform="translate(710.9921875,708.5625)"/>
<path d="M0 0 C45.21 0 90.42 0 137 0 C137 9.9 137 19.8 137 30 C119.84 30 102.68 30 85 30 C85 73.23 85 116.46 85 161 C74.11 161 63.22 161 52 161 C52 117.77 52 74.54 52 30 C34.84 30 17.68 30 0 30 C0 20.1 0 10.2 0 0 Z " fill="#CDB18B" transform="translate(196,656)"/>
<path d="M0 0 C6.60701967 5.11390788 10.80059094 12.34348177 12.4140625 20.5390625 C12.6571661 22.88684383 12.8137796 25.18372181 12.82421875 27.54296875 C5.48091952 31.21461836 -5.23112342 29.64599745 -13.17578125 29.54296875 C-13.39492188 29.011875 -13.6140625 28.48078125 -13.83984375 27.93359375 C-16.10597246 22.88546963 -18.10919274 20.18181693 -23.17578125 17.54296875 C-27.03216979 16.22788695 -31.01815029 16.28596367 -35.05078125 16.23046875 C-35.74558594 16.20146484 -36.44039062 16.17246094 -37.15625 16.14257812 C-42.34346428 16.07908115 -45.161878 17.33307364 -49.17578125 20.54296875 C-50.74519323 22.11238073 -50.42076595 23.68431869 -50.48828125 25.85546875 C-50.52566406 26.63535156 -50.56304688 27.41523437 -50.6015625 28.21875 C-50.01039889 31.44574401 -48.66836495 32.44687928 -46.17578125 34.54296875 C-43.40679741 35.66770746 -43.40679741 35.66770746 -40.30078125 36.359375 C-39.14964844 36.64876953 -37.99851562 36.93816406 -36.8125 37.23632812 C-35.61238281 37.52314453 -34.41226563 37.80996094 -33.17578125 38.10546875 C-32.00660156 38.39615234 -30.83742188 38.68683594 -29.6328125 38.98632812 C-26.14989985 39.85029147 -22.66330734 40.69784574 -19.17578125 41.54296875 C-16.99281553 42.07667759 -14.81048123 42.61297831 -12.62890625 43.15234375 C-11.70239258 43.38018555 -10.77587891 43.60802734 -9.82128906 43.84277344 C-1.16476081 46.13392543 5.42950075 49.1342227 10.82421875 56.54296875 C16.06410713 66.47529448 18.61720798 77.24040078 16.2109375 88.3828125 C13.29911911 97.52874427 8.30133005 103.92789515 -0.19970703 108.50878906 C-10.98271604 113.99007838 -21.0910353 116.04562452 -33.17578125 115.91796875 C-34.2740625 115.92957031 -35.37234375 115.94117188 -36.50390625 115.953125 C-43.8417555 115.9270426 -50.21699755 114.83782776 -57.17578125 112.54296875 C-58.52313354 112.10827271 -58.52313354 112.10827271 -59.89770508 111.66479492 C-69.30410622 108.49683599 -75.77164473 102.36484342 -80.30078125 93.62109375 C-82.16939425 89.18313787 -82.2683665 85.35740154 -82.17578125 80.54296875 C-76.63117093 78.44500809 -71.01793372 77.406014 -65.17578125 76.54296875 C-64.03109375 76.341875 -64.03109375 76.341875 -62.86328125 76.13671875 C-60.80078125 75.91796875 -60.80078125 75.91796875 -57.17578125 76.54296875 C-55.59512168 78.41667195 -54.52683121 80.33830561 -53.3828125 82.50390625 C-50.50783016 87.36067253 -45.35851725 89.09548272 -40.17578125 90.54296875 C-37.49851245 90.77936004 -34.97407509 90.92429532 -32.30078125 90.91796875 C-31.59477783 90.91635742 -30.88877441 90.91474609 -30.16137695 90.91308594 C-23.36986392 90.75311958 -19.23923651 89.31922508 -14.17578125 84.73046875 C-12.66494686 81.42551851 -12.67240003 79.12955994 -13.17578125 75.54296875 C-17.1198549 69.26166627 -24.38388802 68.38148816 -31.17578125 66.54296875 C-37.0823853 65.19696856 -43.02699403 64.04849242 -48.97851562 62.91992188 C-59.77089509 60.74245994 -69.21467934 57.47174213 -76.17578125 48.54296875 C-81.11831769 40.96647872 -83.33972635 31.53039291 -82.17578125 22.54296875 C-79.73424437 12.45518164 -74.77189878 4.7383119 -66.23828125 -1.20703125 C-46.01882875 -13.04078994 -19.6767808 -13.17673113 0 0 Z " fill="#CDB08A" transform="translate(825.17578125,704.45703125)"/>
<path d="M0 0 C49.98701299 0 49.98701299 0 64.95703125 13.8046875 C76.75156305 26.1902307 77.46267731 39.36693618 77.2734375 55.52734375 C76.83261358 70.78377941 70.26619863 81.54070541 59.39453125 92.0234375 C42.62742345 105.86382338 20.70474155 101 0 101 C0 67.67 0 34.34 0 0 Z " fill="#040404" transform="translate(486,686)"/>
<path d="M0 0 C0.85350117 -0.00538554 1.70700235 -0.01077108 2.58636719 -0.01631981 C5.44526259 -0.03062314 8.30369652 -0.0234898 11.16261292 -0.01637268 C13.21270622 -0.022075 15.26279636 -0.02903872 17.31288147 -0.03717041 C22.88103817 -0.05513208 28.44903755 -0.05392777 34.01721454 -0.04822803 C38.66447528 -0.04514056 43.31170561 -0.0512237 47.95896202 -0.05726677 C58.92156533 -0.07132025 69.88409072 -0.06974382 80.84669495 -0.05836487 C92.15923078 -0.04688223 103.47152959 -0.06096001 114.78403419 -0.08776134 C124.4945688 -0.10990663 134.20502894 -0.11655837 143.91558701 -0.11068493 C149.7161664 -0.10731143 155.51659384 -0.10975661 161.31715202 -0.12693596 C166.77141423 -0.14238428 172.22532485 -0.13847283 177.67957306 -0.11963081 C179.68146509 -0.11593912 181.68338305 -0.11907024 183.68525124 -0.1295166 C186.41801589 -0.14268838 189.14961008 -0.13121293 191.88232422 -0.11352539 C192.67464477 -0.1231304 193.46696531 -0.1327354 194.28329557 -0.14263147 C199.46547207 -0.07361274 202.37253646 1.00093587 206.50465393 4.38768005 C208.8776756 7.31440678 209.46432019 9.0707721 209.94215393 12.82518005 C209.41345018 17.13033915 208.33122625 19.11480684 205.50465393 22.38768005 C200.69262232 25.42271162 196.47709895 25.81770393 190.92701721 25.77536011 C190.07674517 25.78074565 189.22647312 25.78613118 188.35043526 25.79167992 C185.50846402 25.80595881 182.66695859 25.79885597 179.82496643 25.79173279 C177.7845777 25.79743634 175.74419215 25.80440054 173.70381165 25.81253052 C168.1667046 25.83047734 162.62975588 25.8292908 157.09262848 25.82358813 C152.47017079 25.82049891 147.84774364 25.82658567 143.2252903 25.83262688 C132.32164091 25.84667511 121.41806986 25.84510792 110.51441956 25.83372498 C99.26377845 25.82223938 88.0133756 25.83632628 76.76276588 25.86312145 C67.10316602 25.88526642 57.44364101 25.89191865 47.78401756 25.88604504 C42.01475189 25.88267189 36.245639 25.8851146 30.47639465 25.90229607 C25.05248722 25.91774417 19.62893334 25.9138332 14.20503998 25.89499092 C12.214435 25.89129935 10.22380395 25.89443 8.23322296 25.90487671 C5.51583627 25.91804915 2.79962655 25.90657256 0.08229065 25.8888855 C-0.70545683 25.8984905 -1.49320431 25.90809551 -2.30482292 25.91799158 C-7.47410163 25.84875941 -10.37276084 24.76295471 -14.49534607 21.38768005 C-16.86836774 18.46095333 -17.45501233 16.70458801 -17.93284607 12.95018005 C-17.40768436 8.67386326 -16.25546816 6.66998741 -13.49534607 3.38768005 C-9.20856609 0.04590075 -5.23594176 -0.03960506 0 0 Z " fill="#CDB18B" transform="translate(283.49534606933594,513.6123199462891)"/>
<path d="M0 0 C4.38253554 2.19126777 7.16669816 4.41674539 9 9 C9.76769204 13.04852946 9.92498532 16.52477625 7.68502808 20.09719849 C5.7497759 22.27465879 3.71958084 24.26619105 1.58984375 26.25390625 C0.82958389 26.99905991 0.06932404 27.74421356 -0.713974 28.51194763 C-3.14309297 30.88426364 -5.6012031 33.2236293 -8.0625 35.5625 C-10.49167794 37.91150227 -12.91453154 40.26686323 -15.33604431 42.62376404 C-16.84165169 44.08469141 -18.35284982 45.53988792 -19.87062073 46.98817444 C-23.12932225 50.1113301 -26.27319256 53.24676792 -29.20361328 56.68164062 C-34.49506195 62.84115575 -40.3383322 68.48197606 -46.08203125 74.21484375 C-47.34533532 75.47882249 -48.60849101 76.74294955 -49.87150574 78.00721741 C-52.50313061 80.64030836 -55.13653528 83.27160244 -57.77124023 85.90161133 C-61.15189205 89.27653114 -64.52798695 92.65596843 -67.90279102 96.03673458 C-70.50285194 98.64040062 -73.10527933 101.24169075 -75.70844078 103.84225655 C-76.95515063 105.08829881 -78.20111669 106.33508574 -79.44632912 107.58262444 C-81.17901999 109.31784479 -82.91486611 111.04984472 -84.65161133 112.78100586 C-85.16641556 113.29783432 -85.68121979 113.81466278 -86.21162415 114.34715271 C-89.51712052 117.63291142 -91.46780326 119.17545667 -96.125 119.5 C-100.01779322 119.40274025 -101.82664473 118.74301511 -104.67016602 116.0949707 C-105.36046906 115.45653229 -106.05077209 114.81809387 -106.76199341 114.16030884 C-110.93002611 110.13697936 -115.06058196 106.0814731 -119.15234375 101.98046875 C-120.10243935 101.03104843 -121.0526832 100.08177646 -122.00306702 99.13264465 C-123.97705877 97.16011503 -125.94926086 95.18581861 -127.92016602 93.21020508 C-130.447604 90.67702339 -132.9795695 88.14842172 -135.51285458 85.62108898 C-137.46799755 83.66955192 -139.42076218 81.71564907 -141.37280464 79.76101112 C-142.75914415 78.37368135 -144.14749591 76.98836335 -145.53587341 75.60307312 C-146.78836632 74.34585197 -146.78836632 74.34585197 -148.06616211 73.06323242 C-148.80370224 72.3248967 -149.54124237 71.58656097 -150.3011322 70.82585144 C-152.65310046 68.29808287 -152.97527243 67.25716668 -153.3125 63.75 C-152.84723242 58.16678901 -150.5047516 55.32561451 -146.375 51.6875 C-143.30475968 49.50601346 -140.94211487 48.32774599 -137.08349609 48.42163086 C-127.55637621 51.06631647 -117.26693254 65.62382157 -110.375 72.5625 C-109.07185054 73.8706778 -107.7684667 75.17862217 -106.46484375 76.48632812 C-103.30719208 79.65487214 -100.1527125 82.82654177 -97 86 C-92.83614573 84.36329254 -90.04809475 81.3222919 -86.9621582 78.20507812 C-86.36821259 77.61303085 -85.77426697 77.02098358 -85.162323 76.41099548 C-83.20355804 74.45593045 -81.25207818 72.49376652 -79.30078125 70.53125 C-77.94162352 69.17090009 -76.58209585 67.81091972 -75.22221375 66.45129395 C-72.37542017 63.60293694 -69.53201651 60.751253 -66.69116211 57.89697266 C-63.04430384 54.2331006 -59.39087309 50.57587008 -55.73511982 46.92087555 C-52.9287872 44.11427145 -50.12506509 41.30507202 -47.32222557 38.49497986 C-45.97556948 37.14513571 -44.62830166 35.79590155 -43.2804203 34.44728088 C-41.40096546 32.56566532 -39.5248363 30.68079832 -37.6496582 28.79492188 C-36.80888481 27.95482826 -36.80888481 27.95482826 -35.9511261 27.09776306 C-33.12747231 24.31154101 -33.12747231 24.31154101 -31 21 C-30.34 21 -29.68 21 -29 21 C-28.74476563 20.41951904 -28.48953125 19.83903809 -28.2265625 19.2409668 C-26.874786 16.77123023 -25.36983874 15.12670356 -23.375 13.14453125 C-22.66859375 12.44005859 -21.9621875 11.73558594 -21.234375 11.00976562 C-20.49703125 10.28466797 -19.7596875 9.55957031 -19 8.8125 C-18.26265625 8.07580078 -17.5253125 7.33910156 -16.765625 6.58007812 C-11.13478248 0.99547427 -8.104375 -0.98234848 0 0 Z " fill="#D0B48E" transform="translate(418,357)"/>
<path d="M0 0 C6.4027466 4.74448129 10.31725127 11.24651983 12 19 C13.04039977 32.5567243 13.3464129 47.23321214 4.10546875 58.08984375 C-2.72629427 64.28786252 -10.80564613 66.3750745 -19.796875 66.27734375 C-27.72765109 65.5906546 -34.77904061 62.02008583 -40 56 C-47.74080141 44.71819368 -48.27138976 32.26361732 -47 19 C-45.18854836 11.14768062 -41.52945765 4.8097651 -35 0 C-23.44772034 -7.0525153 -11.78263662 -6.66560586 0 0 Z " fill="#060605" transform="translate(393,727)"/>
<path d="M0 0 C6.47215076 4.39617788 10.45404865 9.59520452 13 17 C13.662006 21.68929661 13.65595528 26.27166799 13.5625 31 C13.57345703 32.2065625 13.58441406 33.413125 13.59570312 34.65625 C13.51980968 43.96584631 12.14651379 51.82100992 5.75 58.875 C-1.54555113 65.51301219 -9.47121271 67.40349043 -19.16015625 67.2734375 C-27.25252103 66.4942552 -33.59023344 61.83911312 -39 56 C-46.7154633 45.46850707 -46.09982921 32.45421353 -45 20 C-43.56805696 12.12069724 -39.32583347 5.80121399 -33 1 C-32.46246094 0.56816406 -31.92492187 0.13632812 -31.37109375 -0.30859375 C-23.11663283 -5.6453705 -8.28689171 -4.67079351 0 0 Z " fill="#050504" transform="translate(687,726)"/>
<path d="M0 0 C0.76147842 -0.00511093 1.52295685 -0.01022186 2.30751038 -0.01548767 C4.82178637 -0.02937389 7.3357879 -0.02842747 9.85009766 -0.02612305 C11.6012075 -0.03001088 13.35231639 -0.03434574 15.10342407 -0.03910828 C18.77357032 -0.04656867 22.44362037 -0.0462808 26.11376953 -0.04101562 C30.81021898 -0.03522519 35.50627352 -0.05214246 40.2026577 -0.0753603 C43.81955252 -0.09011471 47.43635266 -0.09096695 51.05327225 -0.08785057 C52.7843771 -0.08836305 54.51548735 -0.09358712 56.24656296 -0.10366249 C58.67114418 -0.11604106 61.09496165 -0.10922682 63.51953125 -0.09765625 C64.23038376 -0.10529999 64.94123627 -0.11294373 65.67362976 -0.12081909 C71.16215376 -0.06311666 75.34528867 1.18748436 79.23291016 5.1574707 C81.35272113 9.03901647 81.12385919 12.99453079 80.38916016 17.2746582 C78.49581279 20.89450624 76.32429747 22.96294577 72.38916016 24.2746582 C69.82044969 24.39108563 67.27780281 24.45268097 64.70825195 24.4675293 C63.92741241 24.47570679 63.14657288 24.48388428 62.34207153 24.49230957 C59.75751508 24.51712588 57.17301338 24.53366935 54.58837891 24.5480957 C53.70498148 24.55341938 52.82158405 24.55874306 51.91141701 24.56422806 C47.23611952 24.59094249 42.56084858 24.61032338 37.88549805 24.62475586 C34.01807019 24.63809967 30.15116939 24.6659625 26.28393555 24.70678711 C21.61199751 24.75610504 16.94053784 24.78087566 12.2683506 24.78798294 C10.4897521 24.79469441 8.71116423 24.80991385 6.93271446 24.83387375 C4.44066222 24.86553378 1.95045293 24.86556158 -0.54174805 24.8581543 C-1.27287308 24.87455963 -2.00399811 24.89096497 -2.75727844 24.90786743 C-8.45495396 24.83872251 -10.75903289 23.17216219 -14.61083984 19.2746582 C-16.46194568 15.57244654 -16.0753878 11.31558903 -15.61083984 7.2746582 C-11.7608599 0.67469259 -7.20543532 -0.02496971 0 0 Z " fill="#CFB38D" transform="translate(412.61083984375,438.725341796875)"/>
<path d="M0 0 C2.15538164 0.0031586 4.30938762 -0.02031044 6.46459961 -0.0456543 C7.8428531 -0.04792773 9.22111025 -0.04863058 10.59936523 -0.04760742 C11.84645264 -0.05058838 13.09354004 -0.05356934 14.37841797 -0.05664062 C18.70745614 0.42450384 21.14200062 2.08152023 24.50561523 4.69848633 C26.16981077 6.89969065 26.22829593 8.45007964 26.29077148 11.19067383 C26.33331055 12.0337207 26.37584961 12.87676758 26.41967773 13.74536133 C25.40955619 17.50050243 22.97604588 19.40500251 19.72827148 21.31567383 C16.83150986 21.79491407 14.54247382 21.99770312 11.66186523 21.94458008 C10.90535172 21.94699203 10.1488382 21.94940399 9.36940002 21.95188904 C7.77843963 21.95091419 6.18744379 21.93760713 4.59667969 21.91259766 C2.16866438 21.87821479 -0.25572066 21.89197167 -2.68383789 21.91137695 C-4.23528558 21.90447941 -5.78672395 21.89480783 -7.33813477 21.88208008 C-8.41956505 21.88951988 -8.41956505 21.88951988 -9.52284241 21.89710999 C-14.36711983 21.7844557 -16.86922777 20.75595781 -20.27172852 17.31567383 C-21.87479775 14.10953535 -21.75913313 10.79427386 -21.27172852 7.31567383 C-16.15683592 -1.08736401 -8.84604431 -0.02718761 0 0 Z " fill="#D1B58E" transform="translate(467.271728515625,358.684326171875)"/>
<path d="M0 0 C4.59465871 2.27752479 7.24181681 5.59100883 8.875 10.3359375 C9.67327458 16.62234985 8.54488435 21.13597598 4.875 26.3359375 C1.20132044 29.92001512 -1.70737316 30.60609453 -6.6875 30.7734375 C-11.87670188 30.55575785 -14.84209298 29.72320598 -18.4921875 25.90625 C-22.34150303 21.53499338 -23.49857484 18.22864441 -23.40234375 12.390625 C-22.73448687 7.44284022 -18.84743162 3.25292702 -15.0234375 0.25390625 C-10.368281 -1.99704391 -4.83288536 -1.51027668 0 0 Z " fill="#060605" transform="translate(386.125,212.6640625)"/>
<path d="M0 0 C44.88 0 89.76 0 136 0 C136 9.57 136 19.14 136 29 C118.84 29 101.68 29 84 29 C84 28.67 84 28.34 84 28 C100.5 28 117 28 134 28 C134 19.42 134 10.84 134 2 C90.11 2 46.22 2 1 2 C1 10.58 1 19.16 1 28 C17.5 28 34 28 51 28 C51 28.33 51 28.66 51 29 C34.17 29 17.34 29 0 29 C0 19.43 0 9.86 0 0 Z " fill="#EDCEA2" transform="translate(197,656)"/>
<path d="M0 0 C2.82259735 -0.55224731 4.25495572 -0.70664506 7 0 C9.21679688 1.65234375 9.21679688 1.65234375 11.59375 3.875 C12.90835205 5.10077759 12.90835205 5.10077759 14.24951172 6.35131836 C18.76499273 10.69966325 23.21365705 15.10867745 27.625 19.5625 C28.53378906 20.47580078 29.44257813 21.38910156 30.37890625 22.33007812 C32.58827955 24.55107971 34.79526031 26.77440033 37 29 C36.34 29.66 35.68 30.32 35 31 C34.46890625 30.38511719 33.9378125 29.77023437 33.390625 29.13671875 C32.68421875 28.32847656 31.9778125 27.52023437 31.25 26.6875 C30.55390625 25.88699219 29.8578125 25.08648437 29.140625 24.26171875 C27.09564535 21.96715574 27.09564535 21.96715574 24.734375 20.33203125 C24.16203125 19.89246094 23.5896875 19.45289063 23 19 C23 18.34 23 17.68 23 17 C22.34 17 21.68 17 21 17 C19.4140625 15.390625 19.4140625 15.390625 17.625 13.25 C17.00367188 12.52167969 16.38234375 11.79335938 15.7421875 11.04296875 C15.16726563 10.36878906 14.59234375 9.69460938 14 9 C11.00455767 5.72548038 11.00455767 5.72548038 7 4 C7 3.34 7 2.68 7 2 C4.36 2 1.72 2 -1 2 C-0.67 1.34 -0.34 0.68 0 0 Z " fill="#D3BC94" transform="translate(276,406)"/>
<path d="M0 0 C0.33 0 0.66 0 1 0 C0.9278125 1.25554688 0.855625 2.51109375 0.78125 3.8046875 C0.31051434 12.21164033 -0.13809321 20.57631399 0 29 C-2.08852291 25.86721563 -2.25534948 25.11407868 -2.265625 21.54296875 C-2.26820313 20.67736328 -2.27078125 19.81175781 -2.2734375 18.91992188 C-2.26570313 18.01822266 -2.25796875 17.11652344 -2.25 16.1875 C-2.25773437 15.29740234 -2.26546875 14.40730469 -2.2734375 13.49023438 C-2.25892286 8.59517355 -1.91216289 4.59070852 0 0 Z " fill="#DBBE95" transform="translate(315,741)"/>
<path d="M0 0 C0.33 0.99 0.66 1.98 1 3 C-5.6 2.67 -12.2 2.34 -19 2 C-19 1.67 -19 1.34 -19 1 C-16.95857606 0.83038614 -14.91684689 0.66444404 -12.875 0.5 C-11.16957031 0.36078125 -11.16957031 0.36078125 -9.4296875 0.21875 C-6.27402851 0.0174779 -3.16078835 -0.03842904 0 0 Z " fill="#C0A683" transform="translate(388,817)"/>
<path d="M0 0 C2.97 0.495 2.97 0.495 6 1 C6 1.66 6 2.32 6 3 C7.32 3.66 8.64 4.32 10 5 C6.28111761 4.49287967 3.26545761 3.88391785 0 2 C0 1.34 0 0.68 0 0 Z " fill="#D4B78F" transform="translate(343,811)"/>
<path d="M0 0 C2.64 0 5.28 0 8 0 C8 0.99 8 1.98 8 3 C5.69 3 3.38 3 1 3 C0.67 2.01 0.34 1.02 0 0 Z " fill="#C4A985" transform="translate(370,187)"/>
<path d="M0 0 C1.14926266 0.95421808 2.29430541 1.91352045 3.4375 2.875 C4.07558594 3.40867188 4.71367187 3.94234375 5.37109375 4.4921875 C7 6 7 6 8 8 C4.11137013 6.73882275 2.10624401 5.54735833 0 2 C0 1.34 0 0.68 0 0 Z " fill="#DCC198" transform="translate(364,235)"/>
</svg>
